/* XPM */
static char *anvil[] = {
/* columns rows colors chars-per-pixel */
"64 64 233 2 ",
"   c #34373A",
".  c #313236",
"X  c #2F3135",
"o  c #313237",
"O  c #2E3134",
"+  c #303236",
"@  c #2F3134",
"#  c #2D2F33",
"$  c #2F3035",
"%  c #323539",
"&  c #333538",
"*  c #2C2E32",
"=  c #37383D",
"-  c #37393C",
";  c #303136",
":  c #323338",
">  c #313437",
",  c #323238",
"<  c #32353A",
"1  c #33353A",
"2  c #323439",
"3  c #36383B",
"4  c #38383D",
"5  c #2E3034",
"6  c #36383D",
"7  c #313336",
"8  c #2F3034",
"9  c #333639",
"0  c #323237",
"q  c #313135",
"w  c #313136",
"e  c #2D2F34",
"r  c #34373B",
"t  c #37393B",
"y  c #323438",
"u  c #2C2D32",
"i  c #2B2D31",
"p  c #2D2E32",
"a  c #323538",
"s  c #2B2D33",
"d  c #2E3235",
"f  c #323639",
"g  c #34363A",
"h  c #37373C",
"j  c #36373B",
"k  c #313438",
"l  c #333438",
"z  c #303135",
"x  c #2D2E33",
"c  c #303134",
"v  c #2B2D32",
"b  c #2A2D31",
"n  c #2C2D33",
"m  c #2C2D34",
"M  c #292C32",
"N  c #2D3034",
"B  c #2A2E32",
"V  c #303237",
"C  c #33363A",
"Z  c #303235",
"A  c #323236",
"S  c #323337",
"D  c #333539",
"F  c #343539",
"G  c #323437",
"H  c #303234",
"J  c #313137",
"K  c #2C2C32",
"L  c #333339",
"P  c #35383B",
"I  c #39393C",
"U  c #35373A",
"Y  c #343739",
"T  c #343438",
"R  c #333337",
"E  c #35363A",
"W  c #343538",
"Q  c #353539",
"!  c #363639",
"~  c #36363A",
"^  c #333537",
"/  c #313235",
"(  c #333338",
")  c #303137",
"_  c #323336",
"`  c #323235",
"'  c #2F3234",
"]  c #2F3235",
"[  c #2F3036",
"{  c #343439",
"}  c #393A3C",
"|  c #393B3D",
" . c #343639",
".. c #353639",
"X. c #37373B",
"o. c #36383A",
"O. c #343638",
"+. c #36373A",
"@. c #37373A",
"#. c #353739",
"$. c #2F3236",
"%. c #38393B",
"&. c #383A3C",
"*. c #353638",
"=. c #38383C",
"-. c #393A3D",
";. c #38393C",
":. c #38383B",
">. c #333437",
",. c #313134",
"<. c #323436",
"1. c #2E3033",
"2. c #2D3033",
"3. c #37383B",
"4. c #3A3B3E",
"5. c #363739",
"6. c #3A3B3D",
"7. c #3A3A3D",
"8. c #39393B",
"9. c #37383A",
"0. c #353538",
"q. c #343537",
"w. c #343437",
"e. c #313436",
"r. c #2B2E31",
"t. c #2B2F32",
"y. c #2C2D31",
"u. c #2D2F32",
"i. c #2E3133",
"p. c #363839",
"a. c #3A3A3C",
"s. c #2C2E31",
"d. c #2F3033",
"f. c #2F2F33",
"g. c #333436",
"h. c #333336",
"j. c #313335",
"k. c #323335",
"l. c #333335",
"z. c #333536",
"x. c #353637",
"c. c #38383A",
"v. c #3A3C3D",
"b. c #3B3B3D",
"n. c #3D3D3F",
"m. c #3C3C3E",
"M. c #3B3C3E",
"N. c #363638",
"B. c #38393A",
"V. c #393A3B",
"C. c #373739",
"Z. c #3A3B3C",
"A. c #3B3C3D",
"S. c #3D3E3F",
"D. c #3A3C3E",
"F. c #393B3C",
"G. c #2E2F32",
"H. c #353537",
"J. c #363738",
"K. c #373839",
"L. c #35373B",
"P. c #3E3F40",
"I. c #3A3A3B",
"U. c #383A3D",
"Y. c #3C3D3E",
"T. c #3B3B3C",
"R. c #37393A",
"E. c #383A3B",
"W. c #313234",
"Q. c #333739",
"!. c #353738",
"~. c #323537",
"^. c #333638",
"/. c #36363B",
"(. c #39393D",
"). c #373A3C",
"_. c #36393B",
"`. c #36383C",
"'. c #2E3032",
"]. c #303336",
"[. c #343436",
"{. c #3B3B3F",
"}. c #3B3B3E",
"|. c #35383A",
" X c #34353A",
".X c #34383A",
"XX c #2D3032",
"oX c #2B2E32",
"OX c #2E2F34",
"+X c #303035",
"@X c #2B2E33",
"#X c #2B2C33",
"$X c #2F3136",
"%X c #2A2B31",
"&X c #292D2F",
"*X c #303337",
"=X c #36373C",
"-X c #2E3135",
";X c #2E2F35",
":X c #313337",
">X c #3A3A3E",
",X c #3B3C3F",
"<X c #333439",
"1X c #313238",
"2X c #2A2C30",
"3X c #343536",
"4X c #2C2E33",
"5X c #2A2D32",
"6X c #2E2F33",
"7X c #2F3133",
"8X c #343637",
"9X c #373738",
"0X c #303335",
"qX c #383839",
"wX c #35393B",
"eX c #37383C",
"rX c #39393A",
"tX c #35353A",
"yX c #3C3C3F",
"uX c #3B3D3E",
"iX c #3E3E3F",
"pX c #3C3C3D",
"aX c #3C3D3F",
"sX c #3C3E3F",
"dX c #3D3D3E",
"fX c #353839",
"gX c #2E3035",
"hX c #2C3033",
"jX c #303537",
"kX c #32343A",
"lX c #2D3134",
"zX c #303034",
"xX c #303036",
/* pixels */
"  . X o o O O O + @ # $ % & . X @ $ $ O O O $ $ $ $ $ O O o o $ $ O O $ $ $ * * $ $ $ $ O # = - - ; : > > . , o . < 1 1 2   3 4 ",
"# o : : . $ 5 6 2 7 8 2 9 & 0 8 q , . . o O O $ $ O O O $ w : , o @ $ $ 5 5 * * e e $ $ O O # r t & 2 y y > , , q @ u i p 5 # # ",
"X o a a + + s d # + 4 = f g h j   % y : : w O O O O O X w k l k l + z + x 8 x 8 z ; z z z O : y 0 c : , . o o o 1 o ; 5 v b 5 X ",
"n m M N B V X C % 2 > y > 0 > y %   j . $ 5 5 O Z A S a a D F g 9 & F A G A . @ H z @ . . z z @ O O O . w q ; # + w o . $ $ 5 o ",
"+ 0 o A o o y   3 8 . . J . > o , @ x K 5 # @ L P j I U Y U T R E g & T l W Q ! ~ ^ S / . Z 7 z l ( . J J ; + + : . . w . V ) o ",
"A S l S g _ ` + + o o X o w . 0 $ ' ] [ . l F { } | }  ...X.o.O.+.o.E  .~ Q +...@.#...W T G _ 7 q z # c @ Z Z Z 0 0 S R 7 Z X Z ",
"S _ R 0 R A 0 . / J _ _ . A $.z X Z F : { ~ Q 3 t %.t o.&.o.......*.#.Q t =.I -.-.I ;.I :...& >.,.c 7 z c G S >.l & & >.<.l R >.",
"R g g l _ G l 0 + G . . Z $ 1.2.# Z _ _ & F +.3.-.4.&.o.o.5.5.+.+.! @.I 6.} 7.7.} 8.:.:.9.@.^ _ z ..#.#...0.*.^ q.q.q.q.W ..Q w.",
"e._ _ _ S G c X 8 u r.i t.y.u./ @ i.2.l F 7 E 9.#.p.*.q.q.q.O.0.*.q.:.a.} } a.} } 9.5.*.0.W 5.I 4.6.} =.;.:.:.:.3.:.3.! ..! ! Q ",
"Z _ _ w w c # # s.p d.f.+ / 7 7 g.q.>.R >.h._ #.w.<.j.k.g.l._ q.q.z.*.x.9.9.:.%.%.%.9.c.c.%.| 6.v.b.n.m.M.6.} I ;.I } @.q.g.g.<.",
">.R H / q Z _ . j.X z z _ <.S g._ >._ _ _ g.0.q.*.x.q.*.q.g.g.N.B.8.a.6.V.%.C.C.%.9.8.Z.Z.A.v.Z.A.M.m.S.n.D.F.I %.=.+.@.! ....0.",
"^ >./ ,.c G.8 / G R ` >.  Q W q.z.q.k.g.w.0.x.x.*.N.5.x.H.%.J.Z.A.b.b.b.b.b.9.K.8.c.c.8.V.Z.a.V.a.F.m.%.S.A.6.:.@.+.! q.! *.O.O.",
"} t 0...W 0.F ..L.t o.:.8.%.o.o.@.! q.0.k.x.*.N.*.c.K.C.C.9.8.m.S.P.b.Z.Z.8.J.J.C.C.9.9.K.V.B.I.V.B.6.9.B.7.:.@.@...0.q.W q.*.>.",
"+.U o.3.5.j U.3 3.3.;.=.I a.} 5.C.%.8.K.K.V.} 8.! 9.:.8.C.B.%.Y.Y.M.Z.m.T.m.a.C.! ! K.B.@.%.9.c.%.9.C.! @.9.:.5.+.! w.+.:.8.- 5.",
"&.} @.t X.~ o.o.&.} -.9.:.%.8.6.} %.:.c.6.6.t 5.! @.c.c.5.5.%.} Y.m.V.a.%.7.7.Z.R.N.*.a.} I :.} F.} 5.! ! W >.{ l >.l l #.#.#.~ ",
"} +.:.X.X.+.t t 6.b.&.%.9.t B.! o.} a.&.E.} Z.#.9.9.9.9.5.q.*...5.9.9.p.+.3 9.@.5.9.p.3.:.;.:.@.| ;.*.q.& _ W.. ] 5 8 D Q.+.X.=.",
"3.5.! ..C.+...+.5.@.@.~ +.#.9.*.*.q.*.*.*.O.!...*.5.5.!.5.*.N.! ! ! 9.9...^ q.O.p.@.p.@.@.3.:.:.@.#.. z ^ F R . Z S A 9 @.X.~ ~.",
"3 +.! ..@...O.~ o.o.@.+...0.>.q.q.q.W W q.W >.*.<.....*.0.*.5.5.5.#.5.0.5.>.S _ y l +.C.5.W R . k.W U 3.Q ^.T a D j 3./.(.+.^.9 ",
"! #.! +.t ..W W G >.....q.>.>.<.>.<.k.h.^ _ z 8 O q q.q.0.o.5.!.5.#...+.3 3 6.-.(.).-.7.U O.g Y .. .U _.U  .L.3.3.`.E +.E   Q.{ ",
"Q #.Q Q W ..W W O.& S . O 1.1.'.'.'.@ H ].. @ j.j.j.>.w.W W [.o.o.o.O.+.W W - &.I } 7.{.}.b.6.-.-.I 3.- _.3 |.   X% & 9 A A T ( ",
"~ ....W T Q H.;.- ..0.#.q.7 S >._ >.l F l T ^.g _ A 7 S T T q.T O.Q Q 0.w.T 0.w.>._ ] 9.3.c.+.5.! ! <.T R ( 0 O 1.1.8 w 0 A >.{ ",
"R >.>.l >.0.0.#.P o.|.3 P l F l l S S S S & G G ( l ( S T >.T >.>.>.<.<.>.>._ c >./ j.@.9.p.3.! g.` k.7 . 7 . @ p u 1.@ Z . H Z ",
"l l R >.T Q L.3 & R ~.A D .XA w A _ R 0 G 0 0 : > G 0 R T T T ! ! ! ~ +.+.>.h...q.q.*.5.5.C.%.*.! g.g.<.. / XXoX# 5 X z 0 F l l ",
"OX8 S { >.0 T ^.^.D S . D  .3.E % 2 0 0 > +X=.r f 2 ~.{ A Q ~ ;.! ~ ~ @.>.h.! *.5.5.C.@.c.5.J.c.5.K.9.q.W G . e @X5 X #X$XS ^.( ",
"g > O @ C 8.D S G 2 L.E - /././.4 - / G 0 y 0 & L. .D -.6.D.&.6.M.}.6.E.*.*.*.*.q.@.9.c.a.m.m.b.C.%.@.9.5.W l _ ( o $ K %X&X*Xj ",
"5 =XD : j 3 . q z 8 y : f g 3.- - - 4 3.C & P a . S l +.}.b.&.6.m.%.5.9.5.*.5.5.C.9.c.c.a.A.m.b.A.6.7.I @.! F l S o J -X$ ;X@ @ ",
", , o o # . . o ( & 9     ~.*X:XD D j 7 Z . Z e.+.} >X4.{.,XI 7.I 6.5.K.K.9.9.c.c.c.B.B.B.A.B.V.6.} 5.o.#.W F <Xo w . w @ z 1.@ ",
", 8 O $ z $ @ S 0 1X>.:Xj.+ 5 $ ].Z '.2.# $.J S & Q ;.@.3.R.9.%.8.B.S.8.%.K.K.C.9.c.9.C.c.B.9.8.c.R.:.+.t F T 0 w . o , , k   3.",
"o o w O 5 oX2Xv c c Z Z . Z z z z z @ z XX2.@ 8 z W 7 / _ 0.h.*.!.N.V.Z.b.I.B.3XH.C.x.3X5.9.9.*.C.q.W +.Z OX4X5XX w . y 3 3.U D ",
", , # ' z X 8 1.8 8 H Z z 8 8 @ z . / / 6X7X@ 1.F O.5.@.%.*.x.*.C.C.c.8.8.K.x.J.N.N.N.0.8X*.q.w.w.^ T G [ X 7Xe $ z 1 X q R R A ",
"2 0 _ 7 z Z X X X X q z X @ d.c . _ _ S c H _ / >.w.3.9.I x.J.C.C.K.K.C.C.9XJ.J.8.8.N.C.0.w.q._ _ ... <.~.y _ . + O @ 6X/ 0 A & ",
"& W  .P l 7 0XZ / 8 O @ 8 + / _ & O.<.. W.W.k.g.g.^ q.q.N.C.B.B.qXB.B.Z.A.J.K.B.A.B.J.p.5.:.X.:.X.@.! E T l 0 :XZ 7 7 :X$ :.|...",
"~ U 9  .F wX%.eXW G <._ G  .W #.U 3.).E O.>.>.w.w.0.H.*.c.c.c.} a.I.rXa.V.C.m.A.A.} I.5.8.%.-.:.+.@.5.E tXtX . .l { P >.. O.Q W ",
"& 9 U j t U ( -.} } Q ~ ..tXR 0.).3.3 3.X.X.O.#.t R.5.K.E.T.a.Z.Z.B.8.8.} b.b.m.b.n.M.&.-.E.:.:.:.X.3.@.P U ! Q Q Q ;.;.T 3 ~ W ",
"(.(.+.=.=.8.X.3.%.=._.j j o.%.#.U o.3.@.- eX3.+.9.5.o.o.Z.6.b.Z.A.A.Z.F.8.Y.Y.}.} -.} 6.6.-.@.@.:.:.t t ~ o.3.5.~ o.eX3.- ! &.7.",
"( F j c.%.3 #.3.;.- ;.3 o.Q F X.3 %.+.+.3 3 3.%.o.%.t %.} Z.6.a.} B.V.V.8.Y.m.6.m.} M.&.yXM.A.&.;.} &.A.A.| ! @...;.:.;.4.4.| } ",
"U +. .%.U E  .F U _.} t  .( ( ^ <.: 7 _ 7 /.3.F F <.^  .*.J.5.8X*.%.V.!.8XH.@.:.9.0.o.9.I o.} 7.M.%.R.&.+.9.@.&.U.-.I c.I I 6.Z.",
"S F ..F  .W   A R ! U O.R T _ ' 8 X . Z j.l F *.T ^ ~.O.!.O.g.g.q.>.[.*.h.g.N.5.3.o.....3.t +.5.W %.8.} 6.:.-.} yX| -.8.9.:.;.@.",
"F g  .g U  . .w.W E & e.    q.<.T l l ( l o.|.3 o.3 O.t %.t o.+.!.!.*.W [.h.N.q.O.! *...p.3.%.p.R.eXU ..& 5.3...%.8.M.%.C.9.9.t ",
" .h.S  .  >.W l :XX + D ..3 U T R R R S S R W &   #.q.o.N.E.%.*.H.*.q.q.w...5.! 0.*.0.0.0.p.5.5.k.*.O...^ W >.g. .U #.C.@.@.@.C.",
"R R T 7 G Z _ >.R _ >.>.~ [.>.R G G _ G . 7 T w.T ^ q.>.g.0.N.5.J.N.w.g.g.0.! t ! *.0.q.K...3.%.;.6.b.6.9.5.N.@.:.+...! ....*.! ",
"].G _ _ _ <./ ` >.W ! O.5.0.l >.j.j.j.e.G G ^ G { ....! ..q.*.N.J.N.3Xq.8Xq.*.q.5.%.} 9.6.M.b.b.M.M.M.b.@.C.5.5.! 0.>.W W <.W W ",
". +Xi.7XS >.^ R / ^ O.O....._ _ S j.0Xd.T Q F W F *.+.3.@.5.N.J.q.N.x.q.g.<.8XO.! :.6.6.b.b.b.uXY.M.M.b.F.:.@.N.! ~ 8XW ^ ^ ' O ",
"<.l ^ 7X/ W ^ T q.>.*.q.W W >.>.c 7 7 S  ...O.l ..#.%.V.B.K.J.9.H.g.H.C.x.*.8X} b.b.M.M.M.b.8.} Z.6.m.| } c.c.! +.C.+.>.Q ! ! <.",
">.h.Q 0.Q 0.0.0...0..... .O.{ l W 3 & h.G W ..N.N.@.7.Y.c.c.B.rXx.C.c.a.%.B.c.m.Y.iXn.pX} Z.Z.F.6.m.yXM.6.:.:.3.=.3.o.7.6.o.....",
">.g.W ....~ ..~ ;.P Q #.E _.P W Y F  .T j U +.} %.o.:.} :.B.%.8.8.a.b.m.A.A.Y.aXaXaXb.T.E.%.%.} }.yXyXm.m.| | :.X.t o.3.X.o.~ Q ",
"~ R R T ~ Q ..3 #.! #.U  .#.q.0.t o.o...E +.5.-.^ N.R.c.:.c.C.8.a.a.S.S.S.sXm.m.Y.M.V.V.%.%.%.%.A.b.7.}.%.+.+.~ X.o.&.b.-.@.5.~ ",
"w.W O.+.Q ~ q.q.Q Q #.0.O.Q H.5.T 0.0.0.! @.! 9.%.3.:.:.C.C.K.%.V.dXn.aXS.aXiXY.Z.%.c.! R.:.:.@.C.9.t } #.#...Q Q ~ Q t o.@.0.! ",
"#.3.:.3.q.0.R w.w.w.W w.q.Q 0.0.0.0.0.0.p.! } 9.B.3.@.! K.N.B.V.%.aXaXS.Y.Y.uX:.%.c.C.! C.5.*.k.! ! >.>.^ q.>.^ >.G ^ w.~ j ;.F ",
"0.t o.>.R >.<.w.W 0.o.0.! E.! 5.! #.H.3.;.%.} %.5...<.g.>.>.q.C.V.A.S.M.n.Y.v.} I c.@.0.g.k.k.k.j./ k.H c _ _ >.<.^ Q Q +.&.#.o.",
"} W _ R R >.<.W 3Xq.3.@.! @.*.*.0.9.9.9.*.q.*.#.h.*.*.*.*.[.>.3X5.Z.&.%.%.} D.6.} 9.5...g.` _ / / / / H . . k._ S w.0.W W W *.I ",
"O.^ ^ q.q...W W N.5.I %.%.R.E.%.0.q...0.g.*.9.E.t ! *.! *.*.*.*.*.0.5.9.9.o.#.o.E.3 I q.q.<.w.q...S j.j.H q k._ G . >.Q ..Q O.O.",
"..& ^ Q 0.! ~ 7.-.%.:.8.%.E.9.9.3X<.W w.*.J.9.:.4.6.5.C.*.N.! *.*.*.*.%.} q.g./ 7XZ & ..%.g.T ^ / A _ . _ _ >.R _ _ j.>.>.R O.O.",
"& & ^ ^ ..t ;.4.m.D.| 7.I I %.%.%.%.:.%.5.%.:.3.%.C.C.! N.J.N.x.x.x.8X0.0.>.>.q.>.>.<.<.<._  .w.T w.W w.>.>.>.S S >.w.<.<.l >.>.",
"y W W >.E t >X}.M.D.m.6.} %.I %.%.%.%.R.I :.%.%...C.! 5.+.5.*.*.*.! ! N.*.^ <.j._ R F E W W T w.7 / . z Z . _ _ T S 7 _ 7 . 5 2.",
"G 8 . :X@ ~ fX5.3.;.t R.-.c.9...@.:.o.o.9.*.*.>.g.>.^ *.*.*.0.*.*.0.5.O.W w.>._ R l >.H.l T  .l W.c + F Z gX:X5 0X/ 7 2 R Z 1.OX",
"_ 7 & > _ ~._ 7 S S >.j._ 9...w.w.q.9.3.X.W ! ..W W q.W w.^ ^ H.8XO.O.W ^ W R ( >.T R T 0...W 0 8 $ 7 7 hXjXg O @ k.~.j l Z Z o ",
"A . _ _ R <.<.w.W Q q.<.^ >.<._ <.Q X.~ ..Q U Q W T T W >.<._ / z >._ <.7 7 . Z . S G & W T Q F E 7 :XOX-XkX< y 9 E :.+X6XG.X X ",
"Z Z Z 0XG l F F l R >.S _ G h.h.h.W W l T W >.>.l j.@ @ @ @ _ k.>.>.g.>.>.R o . . Z Z 5 6X$XY l l &   L.h - +.+.g +.- 9 . + X 1.",
"H 6X6X5 0 l _ . S S S & & & S l l ( T h.G _ Z 5 ].. lX7 S / . / c <._ S _ . 5 1.X A ] ] :X8 *X:X. . > y 3.- /./.E +.- y OX@ $ 6X",
"S S _ 7 0 o zXw . . o : > > o < : A S S 7 >.: S o , R _ 7 . 7 T T T T >.>.4 L.% > w . o . A . # o o z J xX& t +.E 9 % % 4 . . o ",
"q 2 % k . : . o o q w w , y o X 4X@ o 8 V , , , _ . z 7 . R #.U g R T T , & % L.h :.9 f > = j y o @ q X X 0 +Xj : % g L.y J 0 0 ",
"eXj   y . q w o o w w $ $ . q @ $ w J @ @ @ O O O O . + q + F 3 eX(.3 |.& ` . > > = - - - y 2.OX# # ; q . . . +X> 0 > +X$ y   L.",
"> 0 0 J w @ + D + O O O # o w + @ X X $ z O $ $ $ O O O O w S ( T ~.( A . c O O O OX$ % eX3.2 2 xX> > > y q ; X . , . z J 2 > > "
};
